# xmcd CD database file
#
# Track frame offsets:
#	183
#	10980
#	31825
#	49818
#
# Disc length: 874 seconds
#
# Revision: 0
# Processed by: cddbd v1.4PL0 Copyright (c) Steve Scherf et al.
# Submitted via: CDex 1.50Beta7
#
DISCID=27036804
DTITLE=Jools Holland and Sam Brown - Together Again (Single)
DYEAR=1991
DGENRE=Jazz
TTITLE0=Together Again (Edit)
TTITLE1=Honey Dripper (Live At Hysteria)
TTITLE2=No-one's To Blame
TTITLE3=The Maidens Lament
EXTD=YEAR: 1991
EXTT0=
EXTT1=
EXTT2=
EXTT3=
PLAYORDER=
